<svg xmlns="http://www.w3.org/2000/svg" width="172" height="176"><defs><linearGradient id="d" x1="95" x2="95" y1="128" y2="26" gradientUnits="userSpaceOnUse"><stop offset="0" stop-color="#3d158f"/><stop offset="1" stop-color="#6441c1"/></linearGradient><clipPath id="a"><path fill="#fff" d="M95 0c42.526 0 77 34.474 77 77s-34.474 77-77 77-77-34.474-77-77S52.474 0 95 0z"/></clipPath><filter id="b" width="214" height="218" x="-18" y="-24" filterUnits="userSpaceOnUse"><feOffset dx="-12" dy="16" in="SourceGraphic" result="FeOffset1312Out"/><feGaussianBlur in="FeOffset1312Out" result="FeGaussianBlur1313Out" stdDeviation="16 16"/></filter><mask id="c" width="2" height="2" x="-1" y="-1"><path fill="#fff" d="M44 26h102v102H44z"/><path d="M95 26c28.166 0 51 22.833 51 51 0 28.166-22.834 51-51 51-28.167 0-51-22.834-51-51 0-28.167 22.833-51 51-51z"/></mask></defs><path fill="none" stroke="#afc0ff" stroke-dasharray="8 4" stroke-miterlimit="20" stroke-width="4" d="M95 0c42.526 0 77 34.474 77 77s-34.474 77-77 77-77-34.474-77-77S52.474 0 95 0z" clip-path="url(&quot;#a&quot;)"/><g filter="url(#b)"><path fill="none" d="M95 26c28.166 0 51 22.833 51 51 0 28.166-22.834 51-51 51-28.167 0-51-22.834-51-51 0-28.167 22.833-51 51-51z" mask="url(&quot;#c&quot;)"/><path fill="#636ba0" fill-opacity=".31" d="M95 26c28.166 0 51 22.833 51 51 0 28.166-22.834 51-51 51-28.167 0-51-22.834-51-51 0-28.167 22.833-51 51-51z"/></g><path fill="#fff" d="M95 26c28.166 0 51 22.833 51 51 0 28.166-22.834 51-51 51-28.167 0-51-22.834-51-51 0-28.167 22.833-51 51-51z"/><path fill="url(#d)" d="M95 26c28.166 0 51 22.833 51 51 0 28.166-22.834 51-51 51-28.167 0-51-22.834-51-51 0-28.167 22.833-51 51-51z"/><path fill="#fff" d="M118.815 59.553l-7.469 36.826c-.545 2.61-2.128 3.235-4.32 2.029l-11.914-8.773c-2.798 2.711-4.569 4.425-5.732 5.513-.993.875-1.359 1.223-2.315 1.21-.91-.013-1.345-.565-1.878-2.03l-4.382-13.393-11.453-3.562c-1.849-.592-1.929-3.053.571-3.773l45.71-17.251c2.098-.949 3.983.006 3.182 3.204zM87.028 93.64l1.109-9.67 21.61-19.377c.579-.66.177-1.617-1.106-.76L82.602 80.117z"/><path fill="#6340c0" d="M156.5 25a6.5 6.5 0 110 13 6.5 6.5 0 010-13z"/></svg>