<svg xmlns="http://www.w3.org/2000/svg" width="172" height="176"><defs><linearGradient id="d" x1="95" x2="95" y1="128" y2="26" gradientUnits="userSpaceOnUse"><stop offset="0" stop-color="#172b9e"/><stop offset="1" stop-color="#495dfa"/></linearGradient><clipPath id="a"><path fill="#fff" d="M95 0c42.526 0 77 34.474 77 77s-34.474 77-77 77-77-34.474-77-77S52.474 0 95 0z"/></clipPath><filter id="b" width="214" height="218" x="-18" y="-24" filterUnits="userSpaceOnUse"><feOffset dx="-12" dy="16" in="SourceGraphic" result="FeOffset1259Out"/><feGaussianBlur in="FeOffset1259Out" result="FeGaussianBlur1260Out" stdDeviation="16 16"/></filter><mask id="c" width="2" height="2" x="-1" y="-1"><path fill="#fff" d="M44 26h102v102H44z"/><path d="M95 26c28.166 0 51 22.833 51 51 0 28.166-22.834 51-51 51-28.167 0-51-22.834-51-51 0-28.167 22.833-51 51-51z"/></mask></defs><path fill="none" stroke="#afc0ff" stroke-dasharray="8 4" stroke-miterlimit="20" stroke-width="4" d="M95 0c42.526 0 77 34.474 77 77s-34.474 77-77 77-77-34.474-77-77S52.474 0 95 0z" clip-path="url(&quot;#a&quot;)"/><g filter="url(#b)"><path fill="none" d="M95 26c28.166 0 51 22.833 51 51 0 28.166-22.834 51-51 51-28.167 0-51-22.834-51-51 0-28.167 22.833-51 51-51z" mask="url(&quot;#c&quot;)"/><path fill="#636ba0" fill-opacity=".31" d="M95 26c28.166 0 51 22.833 51 51 0 28.166-22.834 51-51 51-28.167 0-51-22.834-51-51 0-28.167 22.833-51 51-51z"/></g><path fill="#fff" d="M95 26c28.166 0 51 22.833 51 51 0 28.166-22.834 51-51 51-28.167 0-51-22.834-51-51 0-28.167 22.833-51 51-51z"/><path fill="url(#d)" d="M95 26c28.166 0 51 22.833 51 51 0 28.166-22.834 51-51 51-28.167 0-51-22.834-51-51 0-28.167 22.833-51 51-51z"/><path fill="#fff" d="M101.321 57c1.242.017 2.235 1.026 2.217 2.253-.017 1.227-1.038 2.208-2.28 2.19H76.516v31.111h31.488V76.938c.017-1.227 1.039-2.209 2.28-2.191 1.243.017 2.236 1.026 2.218 2.253v17.778c0 1.227-1.007 2.223-2.25 2.223H74.269c-1.242 0-2.25-.996-2.25-2.223V59.221c0-1.227 1.008-2.221 2.25-2.221h27.053zm15.066 1.358c.866.88.846 2.287-.045 3.142L93.851 83.657a2.268 2.268 0 01-3.189 0l-8.474-8.454a2.204 2.204 0 01.016-3.272 2.269 2.269 0 013.178.146l6.888 6.867 20.892-20.582c.41-.414.965-.653 1.55-.668v-.01a2.267 2.267 0 011.675.674z"/><path fill="#475bf6" d="M158.5 111a6.5 6.5 0 110 13 6.5 6.5 0 010-13z"/></svg>