<svg xmlns="http://www.w3.org/2000/svg" width="178" height="176"><defs><linearGradient id="d" x1="95" x2="95" y1="128" y2="26" gradientUnits="userSpaceOnUse"><stop offset="0" stop-color="#e03468"/><stop offset="1" stop-color="#fa497f"/></linearGradient><clipPath id="a"><path fill="#fff" d="M95 0c42.526 0 77 34.474 77 77s-34.474 77-77 77-77-34.474-77-77S52.474 0 95 0z"/></clipPath><filter id="b" width="214" height="218" x="-18" y="-24" filterUnits="userSpaceOnUse"><feOffset dx="-12" dy="16" in="SourceGraphic" result="FeOffset1365Out"/><feGaussianBlur in="FeOffset1365Out" result="FeGaussianBlur1366Out" stdDeviation="16 16"/></filter><mask id="c" width="2" height="2" x="-1" y="-1"><path fill="#fff" d="M44 26h102v102H44z"/><path d="M95 26c28.166 0 51 22.833 51 51 0 28.166-22.834 51-51 51-28.167 0-51-22.834-51-51 0-28.167 22.833-51 51-51z"/></mask></defs><path fill="none" stroke="#afc0ff" stroke-dasharray="8 4" stroke-miterlimit="20" stroke-width="4" d="M95 0c42.526 0 77 34.474 77 77s-34.474 77-77 77-77-34.474-77-77S52.474 0 95 0z" clip-path="url(&quot;#a&quot;)"/><g filter="url(#b)"><path fill="none" d="M95 26c28.166 0 51 22.833 51 51 0 28.166-22.834 51-51 51-28.167 0-51-22.834-51-51 0-28.167 22.833-51 51-51z" mask="url(&quot;#c&quot;)"/><path fill="#636ba0" fill-opacity=".31" d="M95 26c28.166 0 51 22.833 51 51 0 28.166-22.834 51-51 51-28.167 0-51-22.834-51-51 0-28.167 22.833-51 51-51z"/></g><path fill="#fff" d="M95 26c28.166 0 51 22.833 51 51 0 28.166-22.834 51-51 51-28.167 0-51-22.834-51-51 0-28.167 22.833-51 51-51z"/><path fill="url(#d)" d="M95 26c28.166 0 51 22.833 51 51 0 28.166-22.834 51-51 51-28.167 0-51-22.834-51-51 0-28.167 22.833-51 51-51z"/><path fill="#fff" d="M79.477 98.998h-5.086c-1.87 0-3.391-1.506-3.391-3.358V73.812c0-1.853 1.52-3.36 3.39-3.36h5.087c1.87 0 3.39 1.507 3.39 3.36V95.64c0 1.852-1.52 3.358-3.39 3.358zm-5.086-25.186V95.64h5.088l-.002-21.828zm33.245 25.186H90.483c-2.805 0-5.087-2.259-5.087-5.037V72.132c0-.445.18-.873.497-1.187l18.65-18.47a1.706 1.706 0 012.397 0l1.986 1.966a8.348 8.348 0 010 11.874l-2.483 2.46h9.47c2.806 0 5.087 2.259 5.087 5.037v1.177c0 1.628-.263 3.237-.783 4.78l-4.54 13.49c-1.156 3.432-4.388 5.74-8.041 5.74zm-18.849-26.17V93.96a1.69 1.69 0 001.696 1.679h17.153a5.075 5.075 0 004.824-3.444l4.54-13.49c.404-1.2.61-2.45.61-3.717v-1.177c0-.926-.762-1.68-1.696-1.68H102.35c-.686 0-1.304-.41-1.566-1.037a1.668 1.668 0 01.367-1.83l5.377-5.325a5.008 5.008 0 000-7.124l-.788-.78z"/><path fill="#fa497f" d="M171.5 62a6.5 6.5 0 110 13 6.5 6.5 0 010-13z"/></svg>