<svg xmlns="http://www.w3.org/2000/svg" width="1922" height="1302"><defs><linearGradient id="a" x1="0" x2="1922" y1="650.98" y2="651.02" gradientUnits="userSpaceOnUse"><stop offset="0" stop-color="#3a3c85"/><stop offset="1" stop-color="#5858f7"/></linearGradient></defs><path fill="#e8edff" d="M1922 49.097S1797.596 62.496 1717 62.1c-115.775-.57-294.926-64.598-440-62.006C1111.598 3.048 960.25 70.968 827 72.1c-148.827 1.264-380.153-56.482-503-55.006C198.172 18.607 0 58.1 0 58.1v1192.634s92.393-12.598 203-10c189.304 4.443 262.128 65.565 443 61.005 270.998-6.832 269.634-74.966 446-75.007 157.739-.037 325.187 52.065 499 54.005 158.617 1.77 330-44.004 330-44.004z"/><path fill="url(#a)" d="M1922 49.097S1797.596 62.496 1717 62.1c-115.775-.57-294.926-64.598-440-62.006C1111.598 3.048 960.25 70.968 827 72.1c-148.827 1.264-380.153-56.482-503-55.006C198.172 18.607 0 58.1 0 58.1v1192.634s92.393-12.598 203-10c189.304 4.443 262.128 65.565 443 61.005 270.998-6.832 269.634-74.966 446-75.007 157.739-.037 325.187 52.065 499 54.005 158.617 1.77 330-44.004 330-44.004z"/></svg>